<mxfile host="app.diagrams.net" agent="Mozilla/5.0 (Macintosh; Intel Mac OS X 10_15_7) AppleWebKit/537.36 (KHTML, like Gecko) Chrome/129.0.0.0 Safari/537.36" version="24.7.17">
  <diagram name="Page-1" id="8p4IRBJsOH0NWqh5FR3a">
    <mxGraphModel dx="2537" dy="-23276" grid="1" gridSize="10" guides="1" tooltips="1" connect="1" arrows="1" fold="1" page="1" pageScale="1" pageWidth="850" pageHeight="1100" math="0" shadow="0">
      <root>
        <mxCell id="0" />
        <mxCell id="1" parent="0" />
        <mxCell id="6I1sl8L_XAqL_WmrRl12-2" value="Nurse" style="swimlane;fontStyle=1;align=center;verticalAlign=top;childLayout=stackLayout;horizontal=1;startSize=26;horizontalStack=0;resizeParent=1;resizeParentMax=0;resizeLast=0;collapsible=1;marginBottom=0;whiteSpace=wrap;html=1;" parent="1" vertex="1">
          <mxGeometry x="1130" y="25630" width="220" height="190" as="geometry" />
        </mxCell>
        <mxCell id="6I1sl8L_XAqL_WmrRl12-3" value="&lt;div&gt;&lt;span style=&quot;background-color: initial;&quot;&gt;+ shift&lt;/span&gt;&lt;br&gt;&lt;/div&gt;&lt;div&gt;+ assignedPatients: List&amp;lt;Patient&amp;gt;&lt;br&gt;&lt;/div&gt;&lt;div&gt;+ available: Boolean&lt;br&gt;&lt;/div&gt;" style="text;strokeColor=none;fillColor=none;align=left;verticalAlign=top;spacingLeft=4;spacingRight=4;overflow=hidden;rotatable=0;points=[[0,0.5],[1,0.5]];portConstraint=eastwest;whiteSpace=wrap;html=1;" parent="6I1sl8L_XAqL_WmrRl12-2" vertex="1">
          <mxGeometry y="26" width="220" height="74" as="geometry" />
        </mxCell>
        <mxCell id="6I1sl8L_XAqL_WmrRl12-4" value="" style="line;strokeWidth=1;fillColor=none;align=left;verticalAlign=middle;spacingTop=-1;spacingLeft=3;spacingRight=3;rotatable=0;labelPosition=right;points=[];portConstraint=eastwest;strokeColor=inherit;" parent="6I1sl8L_XAqL_WmrRl12-2" vertex="1">
          <mxGeometry y="100" width="220" height="8" as="geometry" />
        </mxCell>
        <mxCell id="6I1sl8L_XAqL_WmrRl12-5" value="&lt;div&gt;+ updateAvailableStatus(status: String)&lt;/div&gt;&lt;div&gt;&lt;span style=&quot;background-color: initial;&quot;&gt;+ viewAssignedPatients()&lt;/span&gt;&lt;/div&gt;&lt;div&gt;+ conductTriage(Triage triage)&lt;/div&gt;&lt;div&gt;+ updateTriageOutcome(Triage triage, String outcome)&lt;br&gt;&lt;/div&gt;&lt;div&gt;&lt;br&gt;&lt;/div&gt;" style="text;strokeColor=none;fillColor=none;align=left;verticalAlign=top;spacingLeft=4;spacingRight=4;overflow=hidden;rotatable=0;points=[[0,0.5],[1,0.5]];portConstraint=eastwest;whiteSpace=wrap;html=1;" parent="6I1sl8L_XAqL_WmrRl12-2" vertex="1">
          <mxGeometry y="108" width="220" height="82" as="geometry" />
        </mxCell>
        <mxCell id="M8oscCmM2QQ_4ZqXX-RY-12" style="edgeStyle=orthogonalEdgeStyle;rounded=0;orthogonalLoop=1;jettySize=auto;html=1;entryX=0;entryY=0.5;entryDx=0;entryDy=0;endArrow=none;endFill=0;" parent="1" source="6I1sl8L_XAqL_WmrRl12-6" target="6I1sl8L_XAqL_WmrRl12-19" edge="1">
          <mxGeometry relative="1" as="geometry" />
        </mxCell>
        <mxCell id="6I1sl8L_XAqL_WmrRl12-6" value="Patient" style="swimlane;fontStyle=1;align=center;verticalAlign=top;childLayout=stackLayout;horizontal=1;startSize=26;horizontalStack=0;resizeParent=1;resizeParentMax=0;resizeLast=0;collapsible=1;marginBottom=0;whiteSpace=wrap;html=1;" parent="1" vertex="1">
          <mxGeometry x="300" y="25560" width="350" height="120" as="geometry" />
        </mxCell>
        <mxCell id="6I1sl8L_XAqL_WmrRl12-7" value="&lt;div&gt;+ status: String&lt;br&gt;&lt;/div&gt;&lt;div&gt;+ triageStatus: String&lt;/div&gt;" style="text;strokeColor=none;fillColor=none;align=left;verticalAlign=top;spacingLeft=4;spacingRight=4;overflow=hidden;rotatable=0;points=[[0,0.5],[1,0.5]];portConstraint=eastwest;whiteSpace=wrap;html=1;" parent="6I1sl8L_XAqL_WmrRl12-6" vertex="1">
          <mxGeometry y="26" width="350" height="34" as="geometry" />
        </mxCell>
        <mxCell id="6I1sl8L_XAqL_WmrRl12-8" value="" style="line;strokeWidth=1;fillColor=none;align=left;verticalAlign=middle;spacingTop=-1;spacingLeft=3;spacingRight=3;rotatable=0;labelPosition=right;points=[];portConstraint=eastwest;strokeColor=inherit;" parent="6I1sl8L_XAqL_WmrRl12-6" vertex="1">
          <mxGeometry y="60" width="350" height="8" as="geometry" />
        </mxCell>
        <mxCell id="6I1sl8L_XAqL_WmrRl12-9" value="&lt;div&gt;+ register()&lt;/div&gt;&lt;div&gt;&lt;span style=&quot;background-color: initial;&quot;&gt;+ undergoTriage()&lt;/span&gt;&lt;/div&gt;&lt;div&gt;+ registerForTriage()&lt;br&gt;&lt;/div&gt;&lt;div&gt;&lt;span style=&quot;background-color: initial;&quot;&gt;&lt;br&gt;&lt;/span&gt;&lt;/div&gt;" style="text;strokeColor=none;fillColor=none;align=left;verticalAlign=top;spacingLeft=4;spacingRight=4;overflow=hidden;rotatable=0;points=[[0,0.5],[1,0.5]];portConstraint=eastwest;whiteSpace=wrap;html=1;" parent="6I1sl8L_XAqL_WmrRl12-6" vertex="1">
          <mxGeometry y="68" width="350" height="52" as="geometry" />
        </mxCell>
        <mxCell id="6I1sl8L_XAqL_WmrRl12-10" value="ED Staff" style="swimlane;fontStyle=1;align=center;verticalAlign=top;childLayout=stackLayout;horizontal=1;startSize=26;horizontalStack=0;resizeParent=1;resizeParentMax=0;resizeLast=0;collapsible=1;marginBottom=0;whiteSpace=wrap;html=1;" parent="1" vertex="1">
          <mxGeometry x="1425" y="25624" width="290" height="230" as="geometry" />
        </mxCell>
        <mxCell id="6I1sl8L_XAqL_WmrRl12-11" value="&lt;div&gt;&lt;span style=&quot;background-color: initial;&quot;&gt;+ Department: String&lt;/span&gt;&lt;br&gt;&lt;/div&gt;&lt;div&gt;- role: String&amp;nbsp;&lt;/div&gt;&lt;div&gt;- shift: String&lt;/div&gt;&lt;div&gt;+ available: Boolean&amp;nbsp;&lt;br&gt;&lt;/div&gt;" style="text;strokeColor=none;fillColor=none;align=left;verticalAlign=top;spacingLeft=4;spacingRight=4;overflow=hidden;rotatable=0;points=[[0,0.5],[1,0.5]];portConstraint=eastwest;whiteSpace=wrap;html=1;" parent="6I1sl8L_XAqL_WmrRl12-10" vertex="1">
          <mxGeometry y="26" width="290" height="104" as="geometry" />
        </mxCell>
        <mxCell id="6I1sl8L_XAqL_WmrRl12-13" value="" style="endArrow=none;html=1;rounded=0;entryX=0.994;entryY=0.878;entryDx=0;entryDy=0;entryPerimeter=0;" parent="6I1sl8L_XAqL_WmrRl12-10" target="6I1sl8L_XAqL_WmrRl12-11" edge="1">
          <mxGeometry width="50" height="50" relative="1" as="geometry">
            <mxPoint y="117" as="sourcePoint" />
            <mxPoint x="159.95999999999958" y="117.3119999999999" as="targetPoint" />
          </mxGeometry>
        </mxCell>
        <mxCell id="6I1sl8L_XAqL_WmrRl12-14" value="" style="endArrow=none;html=1;rounded=0;entryX=0.994;entryY=0.878;entryDx=0;entryDy=0;entryPerimeter=0;exitX=-0.013;exitY=0.878;exitDx=0;exitDy=0;exitPerimeter=0;" parent="6I1sl8L_XAqL_WmrRl12-10" edge="1">
          <mxGeometry width="50" height="50" relative="1" as="geometry">
            <mxPoint x="-1.3400000000001455" y="117.3119999999999" as="sourcePoint" />
            <mxPoint x="179.92000000000007" y="117.3119999999999" as="targetPoint" />
          </mxGeometry>
        </mxCell>
        <mxCell id="6I1sl8L_XAqL_WmrRl12-12" value="+ getRole(): String&lt;div&gt;+ setRole(role: String): void&lt;/div&gt;&lt;div&gt;+ getShift(): String&lt;/div&gt;&lt;div&gt;+ setShift(shift: String): void&lt;br&gt;&lt;/div&gt;&lt;div&gt;+ checkEDLoad()&lt;/div&gt;" style="text;strokeColor=none;fillColor=none;align=left;verticalAlign=top;spacingLeft=4;spacingRight=4;overflow=hidden;rotatable=0;points=[[0,0.5],[1,0.5]];portConstraint=eastwest;whiteSpace=wrap;html=1;" parent="6I1sl8L_XAqL_WmrRl12-10" vertex="1">
          <mxGeometry y="130" width="290" height="100" as="geometry" />
        </mxCell>
        <mxCell id="M8oscCmM2QQ_4ZqXX-RY-5" style="edgeStyle=orthogonalEdgeStyle;rounded=0;orthogonalLoop=1;jettySize=auto;html=1;" parent="1" source="6I1sl8L_XAqL_WmrRl12-15" edge="1">
          <mxGeometry relative="1" as="geometry">
            <mxPoint x="1955" y="26440.000000000004" as="targetPoint" />
          </mxGeometry>
        </mxCell>
        <mxCell id="6I1sl8L_XAqL_WmrRl12-15" value="System Administrator" style="swimlane;fontStyle=1;align=center;verticalAlign=top;childLayout=stackLayout;horizontal=1;startSize=26;horizontalStack=0;resizeParent=1;resizeParentMax=0;resizeLast=0;collapsible=1;marginBottom=0;whiteSpace=wrap;html=1;" parent="1" vertex="1">
          <mxGeometry x="1810" y="25624" width="290" height="150" as="geometry" />
        </mxCell>
        <mxCell id="6I1sl8L_XAqL_WmrRl12-16" value="&lt;div&gt;+ adminLevel: String&lt;/div&gt;" style="text;strokeColor=none;fillColor=none;align=left;verticalAlign=top;spacingLeft=4;spacingRight=4;overflow=hidden;rotatable=0;points=[[0,0.5],[1,0.5]];portConstraint=eastwest;whiteSpace=wrap;html=1;" parent="6I1sl8L_XAqL_WmrRl12-15" vertex="1">
          <mxGeometry y="26" width="290" height="44" as="geometry" />
        </mxCell>
        <mxCell id="6I1sl8L_XAqL_WmrRl12-17" value="" style="line;strokeWidth=1;fillColor=none;align=left;verticalAlign=middle;spacingTop=-1;spacingLeft=3;spacingRight=3;rotatable=0;labelPosition=right;points=[];portConstraint=eastwest;strokeColor=inherit;" parent="6I1sl8L_XAqL_WmrRl12-15" vertex="1">
          <mxGeometry y="70" width="290" height="8" as="geometry" />
        </mxCell>
        <mxCell id="6I1sl8L_XAqL_WmrRl12-18" value="+ getAdminLevel(): String&amp;nbsp;&lt;div&gt;+ setAdminLevel(level: String): void&lt;/div&gt;&lt;div&gt;+ addUser()&lt;/div&gt;&lt;div&gt;+ updateUser()&lt;/div&gt;" style="text;strokeColor=none;fillColor=none;align=left;verticalAlign=top;spacingLeft=4;spacingRight=4;overflow=hidden;rotatable=0;points=[[0,0.5],[1,0.5]];portConstraint=eastwest;whiteSpace=wrap;html=1;" parent="6I1sl8L_XAqL_WmrRl12-15" vertex="1">
          <mxGeometry y="78" width="290" height="72" as="geometry" />
        </mxCell>
        <mxCell id="6I1sl8L_XAqL_WmrRl12-19" value="Doctor" style="swimlane;fontStyle=1;align=center;verticalAlign=top;childLayout=stackLayout;horizontal=1;startSize=26;horizontalStack=0;resizeParent=1;resizeParentMax=0;resizeLast=0;collapsible=1;marginBottom=0;whiteSpace=wrap;html=1;" parent="1" vertex="1">
          <mxGeometry x="725" y="25630" width="370" height="180" as="geometry" />
        </mxCell>
        <mxCell id="6I1sl8L_XAqL_WmrRl12-20" value="&lt;div&gt;&lt;span style=&quot;background-color: initial;&quot;&gt;+ available: Boolean&lt;/span&gt;&lt;br&gt;&lt;/div&gt;&lt;div&gt;+ specialization: String&lt;/div&gt;&lt;div&gt;+ assignedPatients: List&amp;lt;Patient&amp;gt;&lt;br&gt;&lt;/div&gt;" style="text;strokeColor=none;fillColor=none;align=left;verticalAlign=top;spacingLeft=4;spacingRight=4;overflow=hidden;rotatable=0;points=[[0,0.5],[1,0.5]];portConstraint=eastwest;whiteSpace=wrap;html=1;" parent="6I1sl8L_XAqL_WmrRl12-19" vertex="1">
          <mxGeometry y="26" width="370" height="54" as="geometry" />
        </mxCell>
        <mxCell id="6I1sl8L_XAqL_WmrRl12-21" value="" style="line;strokeWidth=1;fillColor=none;align=left;verticalAlign=middle;spacingTop=-1;spacingLeft=3;spacingRight=3;rotatable=0;labelPosition=right;points=[];portConstraint=eastwest;strokeColor=inherit;" parent="6I1sl8L_XAqL_WmrRl12-19" vertex="1">
          <mxGeometry y="80" width="370" height="20" as="geometry" />
        </mxCell>
        <mxCell id="6I1sl8L_XAqL_WmrRl12-22" value="&lt;div&gt;+ servePatient(patient: Patient)&lt;/div&gt;&lt;div&gt;+ updatePatientStatus(patient: Patient, status: String)&lt;/div&gt;&lt;div&gt;+ viewAssignedPatients()&lt;/div&gt;&lt;div&gt;+ prescribeMedication()&lt;/div&gt;" style="text;strokeColor=none;fillColor=none;align=left;verticalAlign=top;spacingLeft=4;spacingRight=4;overflow=hidden;rotatable=0;points=[[0,0.5],[1,0.5]];portConstraint=eastwest;whiteSpace=wrap;html=1;" parent="6I1sl8L_XAqL_WmrRl12-19" vertex="1">
          <mxGeometry y="100" width="370" height="80" as="geometry" />
        </mxCell>
        <mxCell id="6I1sl8L_XAqL_WmrRl12-23" value="User" style="swimlane;fontStyle=1;align=center;verticalAlign=top;childLayout=stackLayout;horizontal=1;startSize=26;horizontalStack=0;resizeParent=1;resizeParentMax=0;resizeLast=0;collapsible=1;marginBottom=0;whiteSpace=wrap;html=1;" parent="1" vertex="1">
          <mxGeometry x="1230" y="25170" width="180" height="300" as="geometry" />
        </mxCell>
        <mxCell id="6I1sl8L_XAqL_WmrRl12-24" value="&lt;div&gt;+ Name: String&lt;/div&gt;&lt;div&gt;+ DateOfBirth: Date&lt;/div&gt;&lt;div&gt;+ Address: String&lt;/div&gt;&lt;div&gt;- Email:String&lt;/div&gt;&lt;div&gt;- Password: String&lt;/div&gt;&lt;div&gt;+ PhoneNumber: Int&lt;br&gt;&lt;/div&gt;" style="text;strokeColor=none;fillColor=none;align=left;verticalAlign=top;spacingLeft=4;spacingRight=4;overflow=hidden;rotatable=0;points=[[0,0.5],[1,0.5]];portConstraint=eastwest;whiteSpace=wrap;html=1;" parent="6I1sl8L_XAqL_WmrRl12-23" vertex="1">
          <mxGeometry y="26" width="180" height="104" as="geometry" />
        </mxCell>
        <mxCell id="6I1sl8L_XAqL_WmrRl12-25" value="&lt;div&gt;&lt;span style=&quot;background-color: initial;&quot;&gt;+ login()&lt;/span&gt;&lt;/div&gt;&lt;div&gt;&lt;span style=&quot;background-color: initial;&quot;&gt;+ logout()&lt;/span&gt;&lt;/div&gt;&lt;span style=&quot;background-color: initial;&quot;&gt;+ getEmai()&lt;/span&gt;&lt;div&gt;+ getPassword()&lt;/div&gt;&lt;div&gt;&lt;span style=&quot;background-color: initial;&quot;&gt;# setEmail(Email)&lt;/span&gt;&lt;br&gt;&lt;/div&gt;&lt;div&gt;# setPassword(Password)&lt;/div&gt;&lt;div&gt;+ signUp()&lt;/div&gt;&lt;div&gt;&lt;br&gt;&lt;/div&gt;&lt;div&gt;&lt;br&gt;&lt;/div&gt;" style="text;strokeColor=none;fillColor=none;align=left;verticalAlign=top;spacingLeft=4;spacingRight=4;overflow=hidden;rotatable=0;points=[[0,0.5],[1,0.5]];portConstraint=eastwest;whiteSpace=wrap;html=1;" parent="6I1sl8L_XAqL_WmrRl12-23" vertex="1">
          <mxGeometry y="130" width="180" height="170" as="geometry" />
        </mxCell>
        <mxCell id="6I1sl8L_XAqL_WmrRl12-26" value="" style="endArrow=none;html=1;rounded=0;entryX=0.987;entryY=0.004;entryDx=0;entryDy=0;entryPerimeter=0;exitX=-0.009;exitY=0;exitDx=0;exitDy=0;exitPerimeter=0;" parent="6I1sl8L_XAqL_WmrRl12-23" edge="1">
          <mxGeometry width="50" height="50" relative="1" as="geometry">
            <mxPoint x="-0.6200000000003456" y="130" as="sourcePoint" />
            <mxPoint x="178.65999999999985" y="130.68000000000006" as="targetPoint" />
          </mxGeometry>
        </mxCell>
        <mxCell id="6I1sl8L_XAqL_WmrRl12-27" value="Appointment" style="swimlane;fontStyle=1;align=center;verticalAlign=top;childLayout=stackLayout;horizontal=1;startSize=26;horizontalStack=0;resizeParent=1;resizeParentMax=0;resizeLast=0;collapsible=1;marginBottom=0;whiteSpace=wrap;html=1;" parent="1" vertex="1">
          <mxGeometry x="910" y="26480" width="292" height="320" as="geometry" />
        </mxCell>
        <mxCell id="M8oscCmM2QQ_4ZqXX-RY-10" style="edgeStyle=orthogonalEdgeStyle;rounded=0;orthogonalLoop=1;jettySize=auto;html=1;" parent="6I1sl8L_XAqL_WmrRl12-27" source="6I1sl8L_XAqL_WmrRl12-28" edge="1">
          <mxGeometry relative="1" as="geometry">
            <mxPoint x="-100" y="-660" as="targetPoint" />
          </mxGeometry>
        </mxCell>
        <mxCell id="DjcYDqWueYFZrbGwZU2_-1" style="edgeStyle=orthogonalEdgeStyle;rounded=0;orthogonalLoop=1;jettySize=auto;html=1;endArrow=none;endFill=0;" edge="1" parent="6I1sl8L_XAqL_WmrRl12-27" source="6I1sl8L_XAqL_WmrRl12-28">
          <mxGeometry relative="1" as="geometry">
            <mxPoint x="390" y="-440" as="targetPoint" />
          </mxGeometry>
        </mxCell>
        <mxCell id="6I1sl8L_XAqL_WmrRl12-28" value="- patient: Patient&lt;br&gt;- doctor: Doctor&lt;br&gt;- type: String&lt;br&gt;- dateTime: DateTime&lt;br&gt;- status: String&amp;nbsp;" style="text;strokeColor=none;fillColor=none;align=left;verticalAlign=top;spacingLeft=4;spacingRight=4;overflow=hidden;rotatable=0;points=[[0,0.5],[1,0.5]];portConstraint=eastwest;whiteSpace=wrap;html=1;" parent="6I1sl8L_XAqL_WmrRl12-27" vertex="1">
          <mxGeometry y="26" width="292" height="104" as="geometry" />
        </mxCell>
        <mxCell id="6I1sl8L_XAqL_WmrRl12-29" value="" style="line;strokeWidth=1;fillColor=none;align=left;verticalAlign=middle;spacingTop=-1;spacingLeft=3;spacingRight=3;rotatable=0;labelPosition=right;points=[];portConstraint=eastwest;strokeColor=inherit;" parent="6I1sl8L_XAqL_WmrRl12-27" vertex="1">
          <mxGeometry y="130" width="292" height="8" as="geometry" />
        </mxCell>
        <mxCell id="6I1sl8L_XAqL_WmrRl12-30" value="+ schedule(): Boolean&lt;div&gt;+ cancel(): Boolean&lt;/div&gt;&lt;div&gt;+ reschedule(newDateTime: DateTime): Boolean&amp;nbsp;&lt;/div&gt;&lt;div&gt;+ updateStatus(newStatus: String): void&lt;/div&gt;&lt;div&gt;+ getAppointmentID(): String&lt;/div&gt;&lt;div&gt;+ getType(): String&lt;/div&gt;&lt;div&gt;+ setType(type: String): void&lt;/div&gt;&lt;div&gt;+ getDateTime(): DateTime&lt;/div&gt;&lt;div&gt;+ setDateTime(dateTime: DateTime): void&lt;/div&gt;&lt;div&gt;+ getStatus(): String&lt;/div&gt;&lt;div&gt;+ setStatus(status: String): void&lt;br&gt;&lt;/div&gt;" style="text;strokeColor=none;fillColor=none;align=left;verticalAlign=top;spacingLeft=4;spacingRight=4;overflow=hidden;rotatable=0;points=[[0,0.5],[1,0.5]];portConstraint=eastwest;whiteSpace=wrap;html=1;" parent="6I1sl8L_XAqL_WmrRl12-27" vertex="1">
          <mxGeometry y="138" width="292" height="182" as="geometry" />
        </mxCell>
        <mxCell id="6I1sl8L_XAqL_WmrRl12-39" value="Hospital" style="swimlane;fontStyle=1;align=center;verticalAlign=top;childLayout=stackLayout;horizontal=1;startSize=26;horizontalStack=0;resizeParent=1;resizeParentMax=0;resizeLast=0;collapsible=1;marginBottom=0;whiteSpace=wrap;html=1;" parent="1" vertex="1">
          <mxGeometry x="1855" y="26450" width="295" height="310" as="geometry" />
        </mxCell>
        <mxCell id="6I1sl8L_XAqL_WmrRl12-40" value="- name: String&lt;br&gt;- location: String&lt;br&gt;- edCapacity: Integer&lt;br&gt;- currentEDLoad: Integer" style="text;html=1;align=left;verticalAlign=middle;resizable=0;points=[];autosize=1;strokeColor=none;fillColor=none;" parent="6I1sl8L_XAqL_WmrRl12-39" vertex="1">
          <mxGeometry y="26" width="295" height="70" as="geometry" />
        </mxCell>
        <mxCell id="6I1sl8L_XAqL_WmrRl12-41" value="" style="line;strokeWidth=1;fillColor=none;align=left;verticalAlign=middle;spacingTop=-1;spacingLeft=3;spacingRight=3;rotatable=0;labelPosition=right;points=[];portConstraint=eastwest;strokeColor=inherit;" parent="6I1sl8L_XAqL_WmrRl12-39" vertex="1">
          <mxGeometry y="96" width="295" height="6" as="geometry" />
        </mxCell>
        <mxCell id="6I1sl8L_XAqL_WmrRl12-42" value="+ updateEDCapacity(newCapacity: Integer): void&lt;br/&gt;+ incrementEDLoad(): void&lt;br/&gt;+ decrementEDLoad(): void&lt;br/&gt;+ getCurrentLoad(): Integer&lt;br/&gt;+ getName(): String&lt;br/&gt;+ setName(name: String): void&lt;br/&gt;+ getLocation(): String&lt;br/&gt;+ setLocation(location: String): void" style="text;strokeColor=none;fillColor=none;align=left;verticalAlign=top;spacingLeft=4;spacingRight=4;overflow=hidden;rotatable=0;points=[[0,0.5],[1,0.5]];portConstraint=eastwest;whiteSpace=wrap;html=1;" parent="6I1sl8L_XAqL_WmrRl12-39" vertex="1">
          <mxGeometry y="102" width="295" height="208" as="geometry" />
        </mxCell>
        <mxCell id="6I1sl8L_XAqL_WmrRl12-51" value="Records" style="swimlane;fontStyle=1;align=center;verticalAlign=top;childLayout=stackLayout;horizontal=1;startSize=26;horizontalStack=0;resizeParent=1;resizeParentMax=0;resizeLast=0;collapsible=1;marginBottom=0;whiteSpace=wrap;html=1;" parent="1" vertex="1">
          <mxGeometry x="-160" y="25820" width="250" height="280" as="geometry" />
        </mxCell>
        <mxCell id="6I1sl8L_XAqL_WmrRl12-52" value="- patient: Patient&lt;br/&gt;- details: String&lt;br/&gt;- date: DateTime" style="text;html=1;align=left;verticalAlign=middle;resizable=0;points=[];autosize=1;strokeColor=none;fillColor=none;" parent="6I1sl8L_XAqL_WmrRl12-51" vertex="1">
          <mxGeometry y="26" width="250" height="60" as="geometry" />
        </mxCell>
        <mxCell id="6I1sl8L_XAqL_WmrRl12-53" value="" style="line;strokeWidth=1;fillColor=none;align=left;verticalAlign=middle;spacingTop=-1;spacingLeft=3;spacingRight=3;rotatable=0;labelPosition=right;points=[];portConstraint=eastwest;strokeColor=inherit;" parent="6I1sl8L_XAqL_WmrRl12-51" vertex="1">
          <mxGeometry y="86" width="250" height="24" as="geometry" />
        </mxCell>
        <mxCell id="6I1sl8L_XAqL_WmrRl12-54" value="+ createRecord(details: String): Boolean&lt;br/&gt;+ updateRecord(details: String): Boolean&lt;br/&gt;+ viewRecord(): String&lt;br/&gt;+ getRecordID(): String&lt;br/&gt;+ getDetails(): String&lt;br/&gt;+ setDetails(details: String): void&lt;br/&gt;+ getDate(): DateTime&lt;br/&gt;+ setDate(date: DateTime): void" style="text;strokeColor=none;fillColor=none;align=left;verticalAlign=top;spacingLeft=4;spacingRight=4;overflow=hidden;rotatable=0;points=[[0,0.5],[1,0.5]];portConstraint=eastwest;whiteSpace=wrap;html=1;" parent="6I1sl8L_XAqL_WmrRl12-51" vertex="1">
          <mxGeometry y="110" width="250" height="170" as="geometry" />
        </mxCell>
        <mxCell id="6I1sl8L_XAqL_WmrRl12-55" value="" style="endArrow=none;html=1;rounded=0;" parent="1" edge="1">
          <mxGeometry width="50" height="50" relative="1" as="geometry">
            <mxPoint x="1040" y="25500" as="sourcePoint" />
            <mxPoint x="1610" y="25500" as="targetPoint" />
          </mxGeometry>
        </mxCell>
        <mxCell id="6I1sl8L_XAqL_WmrRl12-56" value="" style="endArrow=block;html=1;rounded=0;entryX=0.424;entryY=1.016;entryDx=0;entryDy=0;entryPerimeter=0;endFill=0;" parent="1" target="6I1sl8L_XAqL_WmrRl12-25" edge="1">
          <mxGeometry width="50" height="50" relative="1" as="geometry">
            <mxPoint x="1306" y="25500" as="sourcePoint" />
            <mxPoint x="1140" y="25600" as="targetPoint" />
          </mxGeometry>
        </mxCell>
        <mxCell id="6I1sl8L_XAqL_WmrRl12-57" value="" style="endArrow=none;html=1;rounded=0;exitX=0.662;exitY=0;exitDx=0;exitDy=0;exitPerimeter=0;" parent="1" source="6I1sl8L_XAqL_WmrRl12-19" edge="1">
          <mxGeometry width="50" height="50" relative="1" as="geometry">
            <mxPoint x="1090" y="25650" as="sourcePoint" />
            <mxPoint x="970" y="25500" as="targetPoint" />
          </mxGeometry>
        </mxCell>
        <mxCell id="6I1sl8L_XAqL_WmrRl12-58" value="" style="endArrow=none;html=1;rounded=0;" parent="1" edge="1">
          <mxGeometry width="50" height="50" relative="1" as="geometry">
            <mxPoint x="1610" y="25620" as="sourcePoint" />
            <mxPoint x="1610" y="25500" as="targetPoint" />
          </mxGeometry>
        </mxCell>
        <mxCell id="6I1sl8L_XAqL_WmrRl12-59" value="" style="endArrow=none;html=1;rounded=0;" parent="1" edge="1">
          <mxGeometry width="50" height="50" relative="1" as="geometry">
            <mxPoint x="1306" y="25631" as="sourcePoint" />
            <mxPoint x="1306" y="25500" as="targetPoint" />
          </mxGeometry>
        </mxCell>
        <mxCell id="6I1sl8L_XAqL_WmrRl12-60" value="" style="endArrow=none;html=1;rounded=0;exitX=0.828;exitY=-0.006;exitDx=0;exitDy=0;exitPerimeter=0;" parent="1" source="6I1sl8L_XAqL_WmrRl12-6" edge="1">
          <mxGeometry width="50" height="50" relative="1" as="geometry">
            <mxPoint x="1090" y="25650" as="sourcePoint" />
            <mxPoint x="1040" y="25500" as="targetPoint" />
            <Array as="points">
              <mxPoint x="590" y="25500" />
            </Array>
          </mxGeometry>
        </mxCell>
        <mxCell id="6I1sl8L_XAqL_WmrRl12-61" value="" style="endArrow=none;html=1;rounded=0;" parent="1" edge="1">
          <mxGeometry width="50" height="50" relative="1" as="geometry">
            <mxPoint x="1910" y="25620" as="sourcePoint" />
            <mxPoint x="1610" y="25500" as="targetPoint" />
            <Array as="points">
              <mxPoint x="1910" y="25500" />
            </Array>
          </mxGeometry>
        </mxCell>
        <mxCell id="6I1sl8L_XAqL_WmrRl12-67" value="" style="endArrow=none;html=1;endSize=12;startArrow=diamondThin;startSize=14;startFill=1;edgeStyle=orthogonalEdgeStyle;align=left;verticalAlign=bottom;rounded=0;endFill=0;" parent="1" target="6I1sl8L_XAqL_WmrRl12-53" edge="1">
          <mxGeometry x="-1" y="3" relative="1" as="geometry">
            <mxPoint x="340" y="25690" as="sourcePoint" />
            <mxPoint x="1200" y="25850" as="targetPoint" />
            <Array as="points">
              <mxPoint x="350" y="25690" />
              <mxPoint x="350" y="25918" />
            </Array>
          </mxGeometry>
        </mxCell>
        <mxCell id="6I1sl8L_XAqL_WmrRl12-74" value="" style="endArrow=classic;html=1;rounded=0;exitX=0.903;exitY=1.072;exitDx=0;exitDy=0;exitPerimeter=0;entryX=0.903;entryY=1.072;entryDx=0;entryDy=0;entryPerimeter=0;" parent="1" target="6I1sl8L_XAqL_WmrRl12-9" edge="1">
          <mxGeometry width="50" height="50" relative="1" as="geometry">
            <mxPoint x="927.6600000000003" y="26107.184" as="sourcePoint" />
            <mxPoint x="670" y="25960" as="targetPoint" />
            <Array as="points">
              <mxPoint x="616" y="26110" />
            </Array>
          </mxGeometry>
        </mxCell>
        <mxCell id="6I1sl8L_XAqL_WmrRl12-76" value="" style="endArrow=classic;html=1;rounded=0;exitX=0.898;exitY=1.051;exitDx=0;exitDy=0;exitPerimeter=0;entryX=0.898;entryY=1.051;entryDx=0;entryDy=0;entryPerimeter=0;" parent="1" target="6I1sl8L_XAqL_WmrRl12-22" edge="1">
          <mxGeometry width="50" height="50" relative="1" as="geometry">
            <mxPoint x="1058.8681804011226" y="26040.000000000004" as="sourcePoint" />
            <mxPoint x="670" y="26070" as="targetPoint" />
            <Array as="points" />
          </mxGeometry>
        </mxCell>
        <mxCell id="6I1sl8L_XAqL_WmrRl12-77" value="" style="endArrow=classic;html=1;rounded=0;exitX=0.774;exitY=1.005;exitDx=0;exitDy=0;exitPerimeter=0;entryX=0.774;entryY=1.005;entryDx=0;entryDy=0;entryPerimeter=0;" parent="1" target="6I1sl8L_XAqL_WmrRl12-5" edge="1">
          <mxGeometry width="50" height="50" relative="1" as="geometry">
            <mxPoint x="1192.0800000000004" y="26062.4" as="sourcePoint" />
            <mxPoint x="1067" y="25824" as="targetPoint" />
            <Array as="points">
              <mxPoint x="1300" y="26060" />
            </Array>
          </mxGeometry>
        </mxCell>
        <mxCell id="6I1sl8L_XAqL_WmrRl12-80" value="" style="endArrow=classic;html=1;rounded=0;" parent="1" edge="1">
          <mxGeometry width="50" height="50" relative="1" as="geometry">
            <mxPoint x="1191" y="26340" as="sourcePoint" />
            <mxPoint x="1880" y="26450" as="targetPoint" />
            <Array as="points">
              <mxPoint x="1880" y="26350" />
            </Array>
          </mxGeometry>
        </mxCell>
        <mxCell id="6I1sl8L_XAqL_WmrRl12-81" value="" style="endArrow=classic;html=1;rounded=0;exitX=0.493;exitY=0.989;exitDx=0;exitDy=0;exitPerimeter=0;" parent="1" source="M8oscCmM2QQ_4ZqXX-RY-4" target="6I1sl8L_XAqL_WmrRl12-27" edge="1">
          <mxGeometry width="50" height="50" relative="1" as="geometry">
            <mxPoint x="1049.3400000000001" y="26362.73" as="sourcePoint" />
            <mxPoint x="1600" y="26620" as="targetPoint" />
          </mxGeometry>
        </mxCell>
        <mxCell id="M8oscCmM2QQ_4ZqXX-RY-1" value="GUI" style="swimlane;fontStyle=1;align=center;verticalAlign=top;childLayout=stackLayout;horizontal=1;startSize=26;horizontalStack=0;resizeParent=1;resizeParentMax=0;resizeLast=0;collapsible=1;marginBottom=0;whiteSpace=wrap;html=1;" parent="1" vertex="1">
          <mxGeometry x="930" y="26050" width="260" height="290" as="geometry" />
        </mxCell>
        <mxCell id="M8oscCmM2QQ_4ZqXX-RY-2" value="- currentView: String" style="text;html=1;align=left;verticalAlign=middle;resizable=0;points=[];autosize=1;strokeColor=none;fillColor=none;" parent="M8oscCmM2QQ_4ZqXX-RY-1" vertex="1">
          <mxGeometry y="26" width="260" height="30" as="geometry" />
        </mxCell>
        <mxCell id="M8oscCmM2QQ_4ZqXX-RY-3" value="" style="line;strokeWidth=1;fillColor=none;align=left;verticalAlign=middle;spacingTop=-1;spacingLeft=3;spacingRight=3;rotatable=0;labelPosition=right;points=[];portConstraint=eastwest;strokeColor=inherit;" parent="M8oscCmM2QQ_4ZqXX-RY-1" vertex="1">
          <mxGeometry y="56" width="260" height="24" as="geometry" />
        </mxCell>
        <mxCell id="M8oscCmM2QQ_4ZqXX-RY-4" value="+ displayLogin(): void&lt;div&gt;+ displayDashboard(user: User): void&lt;/div&gt;&lt;div&gt;+ displayAppointmentDetails(appointment: Appointment): void&amp;nbsp;&lt;/div&gt;&lt;div&gt;+ getCurrentView(): String&lt;/div&gt;&lt;div&gt;+ setCurrentView(view: String): void&lt;/div&gt;" style="text;strokeColor=none;fillColor=none;align=left;verticalAlign=top;spacingLeft=4;spacingRight=4;overflow=hidden;rotatable=0;points=[[0,0.5],[1,0.5]];portConstraint=eastwest;whiteSpace=wrap;html=1;" parent="M8oscCmM2QQ_4ZqXX-RY-1" vertex="1">
          <mxGeometry y="80" width="260" height="210" as="geometry" />
        </mxCell>
        <mxCell id="M8oscCmM2QQ_4ZqXX-RY-8" value="" style="endArrow=diamondThin;html=1;endSize=12;startArrow=none;startSize=14;startFill=0;edgeStyle=orthogonalEdgeStyle;align=left;verticalAlign=bottom;rounded=0;endFill=0;" parent="1" edge="1">
          <mxGeometry x="-1" y="3" relative="1" as="geometry">
            <mxPoint x="1210" y="26641" as="sourcePoint" />
            <mxPoint x="1850" y="26641" as="targetPoint" />
          </mxGeometry>
        </mxCell>
        <mxCell id="M8oscCmM2QQ_4ZqXX-RY-9" style="edgeStyle=orthogonalEdgeStyle;rounded=0;orthogonalLoop=1;jettySize=auto;html=1;" parent="1" edge="1">
          <mxGeometry relative="1" as="geometry">
            <mxPoint x="480" y="25690" as="targetPoint" />
            <mxPoint x="830" y="26558.066666666666" as="sourcePoint" />
          </mxGeometry>
        </mxCell>
        <mxCell id="M8oscCmM2QQ_4ZqXX-RY-16" style="edgeStyle=orthogonalEdgeStyle;rounded=0;orthogonalLoop=1;jettySize=auto;html=1;exitX=0;exitY=0;exitDx=0;exitDy=0;entryX=0.5;entryY=0;entryDx=0;entryDy=0;endArrow=none;endFill=0;" parent="1" source="M8oscCmM2QQ_4ZqXX-RY-14" target="6I1sl8L_XAqL_WmrRl12-2" edge="1">
          <mxGeometry relative="1" as="geometry" />
        </mxCell>
        <mxCell id="M8oscCmM2QQ_4ZqXX-RY-14" value="&lt;font style=&quot;font-size: 16px;&quot;&gt;0..*&lt;/font&gt;" style="text;html=1;align=center;verticalAlign=middle;whiteSpace=wrap;rounded=0;" parent="1" vertex="1">
          <mxGeometry x="650" y="25590" width="60" height="30" as="geometry" />
        </mxCell>
        <mxCell id="M8oscCmM2QQ_4ZqXX-RY-15" value="&lt;font style=&quot;font-size: 16px;&quot;&gt;1&lt;/font&gt;" style="text;html=1;align=center;verticalAlign=middle;whiteSpace=wrap;rounded=0;" parent="1" vertex="1">
          <mxGeometry x="680" y="25724" width="60" height="30" as="geometry" />
        </mxCell>
        <mxCell id="M8oscCmM2QQ_4ZqXX-RY-17" value="&lt;font style=&quot;font-size: 16px;&quot;&gt;0..*&lt;/font&gt;" style="text;html=1;align=center;verticalAlign=middle;whiteSpace=wrap;rounded=0;" parent="1" vertex="1">
          <mxGeometry x="650" y="25540" width="60" height="30" as="geometry" />
        </mxCell>
        <mxCell id="M8oscCmM2QQ_4ZqXX-RY-18" value="&lt;font style=&quot;font-size: 16px;&quot;&gt;1&lt;/font&gt;" style="text;html=1;align=center;verticalAlign=middle;whiteSpace=wrap;rounded=0;" parent="1" vertex="1">
          <mxGeometry x="1185" y="25600" width="60" height="30" as="geometry" />
        </mxCell>
        <mxCell id="KYRrboBj7Vg_x4o4IDn0-2" value="" style="endArrow=diamondThin;html=1;endSize=12;startArrow=none;startSize=14;startFill=0;edgeStyle=orthogonalEdgeStyle;align=left;verticalAlign=bottom;rounded=0;endFill=0;exitX=0.377;exitY=1.04;exitDx=0;exitDy=0;exitPerimeter=0;" parent="1" source="6I1sl8L_XAqL_WmrRl12-12" edge="1">
          <mxGeometry x="-1" y="3" relative="1" as="geometry">
            <mxPoint x="1540" y="25950" as="sourcePoint" />
            <mxPoint x="1840" y="26480" as="targetPoint" />
            <Array as="points">
              <mxPoint x="1540" y="25858" />
              <mxPoint x="1540" y="26480" />
            </Array>
          </mxGeometry>
        </mxCell>
        <mxCell id="KYRrboBj7Vg_x4o4IDn0-7" style="edgeStyle=orthogonalEdgeStyle;rounded=0;orthogonalLoop=1;jettySize=auto;html=1;endArrow=none;endFill=0;" parent="1" source="KYRrboBj7Vg_x4o4IDn0-3" edge="1">
          <mxGeometry relative="1" as="geometry">
            <mxPoint x="480" y="26325" as="targetPoint" />
          </mxGeometry>
        </mxCell>
        <mxCell id="KYRrboBj7Vg_x4o4IDn0-8" style="edgeStyle=orthogonalEdgeStyle;rounded=0;orthogonalLoop=1;jettySize=auto;html=1;entryX=0.144;entryY=1.049;entryDx=0;entryDy=0;entryPerimeter=0;" parent="1" source="KYRrboBj7Vg_x4o4IDn0-3" target="6I1sl8L_XAqL_WmrRl12-5" edge="1">
          <mxGeometry relative="1" as="geometry">
            <mxPoint x="1170" y="25850" as="targetPoint" />
            <Array as="points">
              <mxPoint x="225" y="25990" />
              <mxPoint x="1161" y="25990" />
              <mxPoint x="1161" y="25850" />
            </Array>
          </mxGeometry>
        </mxCell>
        <mxCell id="KYRrboBj7Vg_x4o4IDn0-3" value="Triage" style="swimlane;fontStyle=1;align=center;verticalAlign=top;childLayout=stackLayout;horizontal=1;startSize=26;horizontalStack=0;resizeParent=1;resizeParentMax=0;resizeLast=0;collapsible=1;marginBottom=0;whiteSpace=wrap;html=1;" parent="1" vertex="1">
          <mxGeometry x="100" y="26220" width="250" height="220" as="geometry" />
        </mxCell>
        <mxCell id="KYRrboBj7Vg_x4o4IDn0-4" value="+ patient: Patient&amp;nbsp;&lt;div&gt;+ nurse: Nurse&amp;nbsp;&lt;/div&gt;&lt;div&gt;+ triageOutcome: String&amp;nbsp;&lt;/div&gt;&lt;div&gt;+ priorityLevel: int&lt;/div&gt;&lt;div&gt;+ triageType: String&lt;/div&gt;&lt;div&gt;+ date: DateTime&lt;br&gt;&lt;/div&gt;" style="text;html=1;align=left;verticalAlign=middle;resizable=0;points=[];autosize=1;strokeColor=none;fillColor=none;" parent="KYRrboBj7Vg_x4o4IDn0-3" vertex="1">
          <mxGeometry y="26" width="250" height="100" as="geometry" />
        </mxCell>
        <mxCell id="KYRrboBj7Vg_x4o4IDn0-5" value="" style="line;strokeWidth=1;fillColor=none;align=left;verticalAlign=middle;spacingTop=-1;spacingLeft=3;spacingRight=3;rotatable=0;labelPosition=right;points=[];portConstraint=eastwest;strokeColor=inherit;" parent="KYRrboBj7Vg_x4o4IDn0-3" vertex="1">
          <mxGeometry y="126" width="250" height="24" as="geometry" />
        </mxCell>
        <mxCell id="KYRrboBj7Vg_x4o4IDn0-6" value="+ performTriage(): void&amp;nbsp;&lt;div&gt;+ notifyPatient(): void&lt;/div&gt;" style="text;strokeColor=none;fillColor=none;align=left;verticalAlign=top;spacingLeft=4;spacingRight=4;overflow=hidden;rotatable=0;points=[[0,0.5],[1,0.5]];portConstraint=eastwest;whiteSpace=wrap;html=1;" parent="KYRrboBj7Vg_x4o4IDn0-3" vertex="1">
          <mxGeometry y="150" width="250" height="70" as="geometry" />
        </mxCell>
      </root>
    </mxGraphModel>
  </diagram>
</mxfile>
